<?xml version="1.0" encoding="UTF-8" standalone="no"?>
<!-- Created with Inkscape (http://www.inkscape.org/) -->

<svg
   xmlns:dc="http://purl.org/dc/elements/1.1/"
   xmlns:cc="http://creativecommons.org/ns#"
   xmlns:rdf="http://www.w3.org/1999/02/22-rdf-syntax-ns#"
   xmlns:svg="http://www.w3.org/2000/svg"
   xmlns="http://www.w3.org/2000/svg"
   xmlns:sodipodi="http://sodipodi.sourceforge.net/DTD/sodipodi-0.dtd"
   xmlns:inkscape="http://www.inkscape.org/namespaces/inkscape"
   version="1.0"
   width="507.88727"
   height="277.42688"
   viewBox="0 0 1865.912 993.96013"
   id="svg2"
   xml:space="preserve"
   inkscape:version="0.48.2 r9819"
   sodipodi:docname="Cholesterol.svg"><metadata
   id="metadata62"><rdf:RDF><cc:Work
       rdf:about=""><dc:format>image/svg+xml</dc:format><dc:type
         rdf:resource="http://purl.org/dc/dcmitype/StillImage" /></cc:Work></rdf:RDF></metadata><sodipodi:namedview
   pagecolor="#ffffff"
   bordercolor="#666666"
   borderopacity="1"
   objecttolerance="10"
   gridtolerance="10"
   guidetolerance="10"
   inkscape:pageopacity="0"
   inkscape:pageshadow="2"
   inkscape:window-width="969"
   inkscape:window-height="729"
   id="namedview60"
   showgrid="false"
   inkscape:zoom="1.52"
   inkscape:cx="234.97147"
   inkscape:cy="139.82851"
   inkscape:window-x="0"
   inkscape:window-y="0"
   inkscape:window-maximized="0"
   inkscape:current-layer="svg2"
   fit-margin-top="2"
   fit-margin-left="2"
   fit-margin-right="2"
   fit-margin-bottom="2" /><defs
   id="defs118"><marker
   inkscape:stockid="Arrow2Mend"
   orient="auto"
   refY="0"
   refX="0"
   id="Arrow2Mend"
   style="overflow:visible"><path
     id="path4333"
     style="font-size:12px;fill-rule:evenodd;stroke-width:0.625;stroke-linejoin:round"
     d="M 8.7185878,4.0337352 -2.2072895,0.01601326 8.7185884,-4.0017078 c -1.7454984,2.3720609 -1.7354408,5.6174519 -6e-7,8.035443 z"
     transform="scale(-0.6,-0.6)"
     inkscape:connector-curvature="0" /></marker>
			
		
				
				
				
				
				
				
				
				
				
				
				
				
				
				
				
				
				
				
				
				
				
				
				

				
				
				
				
				
				
				
				
				
				
				
				
				
				
				
				

				
				
				
				
				

				
				
				
				
				

				
			</defs>
	
		<polygon
   points="232.5,913.496 232.5,769.492 240.502,774.492 240.502,913.496 240.502,913.496 236.503,915.996 "
   style="fill:#231815"
   id="polygon9"
   transform="matrix(0.9136179,0,0,0.9136181,287.55412,23.529028)" /><polygon
   points="236.503,920.996 236.503,915.996 240.502,913.496 361,983.496 361,983.496 361,992.5 "
   style="fill:#231815"
   id="polygon11"
   transform="matrix(0.9136179,0,0,0.9136181,287.55412,23.529028)" /><polygon
   points="485.502,920.488 361,992.5 361,983.496 481.503,913.496 481.503,913.496 485.502,915.996 "
   style="fill:#231815"
   id="polygon13"
   transform="matrix(0.9136179,0,0,0.9136181,287.55412,23.529028)" /><polygon
   points="481.503,774.492 481.503,774.492 485.502,771.992 489.501,774.492 489.501,913.496 485.502,915.996 481.503,913.496 "
   style="fill:#231815"
   id="polygon15"
   transform="matrix(0.9136179,0,0,0.9136181,287.55412,23.529028)" /><polygon
   points="481,765 485.502,771.992 481.503,774.492 361,704.492 361,704.492 361,695.488 "
   style="fill:#231815"
   id="polygon17"
   transform="matrix(0.9136179,0,0,0.9136181,287.55412,23.529028)" /><polygon
   points="240.502,774.492 232.5,769.492 361,695.488 361,704.492 240.502,774.492 "
   style="fill:#231815"
   id="polygon19"
   transform="matrix(0.9136179,0,0,0.9136181,287.55412,23.529028)" /><polygon
   points="485.502,920.488 485.502,915.996 489.501,913.496 610.502,983.496 610.502,983.496 610.502,992.5 "
   style="fill:#231815"
   id="polygon21"
   transform="matrix(0.9136179,0,0,0.9136181,287.55412,23.529028)" /><polygon
   points="612.5,954.492 608.5,961.504 509.501,904.492 513.5,897.5 612.5,954.492 "
   style="fill:#231815"
   id="polygon23"
   transform="matrix(0.9136179,0,0,0.9136181,287.55412,23.529028)" /><polygon
   points="731,913.496 739.003,918.496 610.502,992.5 610.502,983.496 731,913.496 "
   style="fill:#231815"
   id="polygon25"
   transform="matrix(0.9136179,0,0,0.9136181,287.55412,23.529028)" /><polygon
   points="739.003,774.492 739.003,918.496 731,913.496 731,774.492 731,774.492 735,771.992 "
   style="fill:#231815"
   id="polygon27"
   transform="matrix(0.9136179,0,0,0.9136181,287.55412,23.529028)" /><polygon
   points="610.502,704.492 610.502,704.492 610.502,700 614.501,697.5 730,764.492 735,771.992 731,774.492 "
   style="fill:#231815"
   id="polygon29"
   transform="matrix(0.9136179,0,0,0.9136181,287.55412,23.529028)" /><polygon
   points="489.501,774.492 489.501,774.492 485.502,771.992 490.502,765 606.503,697.5 610.502,700 610.502,704.492 "
   style="fill:#231815"
   id="polygon31"
   transform="matrix(0.9136179,0,0,0.9136181,287.55412,23.529028)" /><polygon
   points="856.005,697.5 856.005,697.5 860,700 860.498,704.492 739.003,774.492 735,771.992 740,764.492 "
   style="fill:#231815"
   id="polygon33"
   transform="matrix(0.9136179,0,0,0.9136181,287.55412,23.529028)" /><polygon
   points="856.005,558.496 856.005,558.496 860,555.996 864.003,559.004 864.003,696.992 860,700 856.005,697.5 "
   style="fill:#231815"
   id="polygon35"
   transform="matrix(0.9136179,0,0,0.9136181,287.55412,23.529028)" /><polygon
   points="855.498,549.004 860,555.996 856.005,558.496 735,488.496 735,488.496 735,479.497 "
   style="fill:#231815"
   id="polygon37"
   transform="matrix(0.9136179,0,0,0.9136181,287.55412,23.529028)" /><polygon
   points="614.501,558.496 606.503,553.496 735,479.497 735,488.496 614.501,558.496 "
   style="fill:#231815"
   id="polygon39"
   transform="matrix(0.9136179,0,0,0.9136181,287.55412,23.529028)" /><polygon
   points="606.503,697.5 606.503,553.496 614.501,558.496 614.501,697.5 614.501,697.5 610.502,700 "
   style="fill:#231815"
   id="polygon41"
   transform="matrix(0.9136179,0,0,0.9136181,287.55412,23.529028)" /><polygon
   points="860.498,704.492 860,700 864.003,696.992 995.498,740 995.498,740 998.505,749.004 "
   style="fill:#231815"
   id="polygon43"
   transform="matrix(0.9136179,0,0,0.9136181,287.55412,23.529028)" /><polygon
   points="1076.503,627.988 1086.503,627.988 998.505,749.004 995.498,740 1076.503,627.988 "
   style="fill:#231815"
   id="polygon45"
   transform="matrix(0.9136179,0,0,0.9136181,287.55412,23.529028)" /><polygon
   points="1001.503,510.996 1086.503,627.988 1076.503,627.988 995.498,515.996 995.498,515.996 997.001,511.499 "
   style="fill:#231815"
   id="polygon47"
   transform="matrix(0.9136179,0,0,0.9136181,287.55412,23.529028)" /><polygon
   points="864.003,559.004 864.003,559.004 860,555.996 864.501,550.488 993.505,508.496 997.001,511.499 995.498,515.996 "
   style="fill:#231815"
   id="polygon49"
   transform="matrix(0.9136179,0,0,0.9136181,287.55412,23.529028)" /><polygon
   points="845,411.997 845,411.997 860,411.997 875,411.997 864.501,550.488 860,555.996 855.498,549.004 "
   style="fill:#231815"
   id="polygon51"
   transform="matrix(0.9136179,0,0,0.9136181,287.55412,23.529028)" />
<polygon
   points="470.502,627.988 470.502,627.988 485.502,627.988 500.502,627.988 490.502,765 485.502,771.992 481,765 "
   style="fill:#231815"
   id="polygon59"
   transform="matrix(0.9136179,0,0,0.9136181,287.55412,23.529028)" /><g
   id="g3278"
   transform="translate(247.76071,-21.166855)"><polygon
     transform="matrix(0.9136179,0,0,0.9136181,66.159501,60.009026)"
     id="polygon63"
     style="fill:#231815"
     points="1055.498,378.999 1026.503,370.996 1182.998,370.996 1182.998,370.996 1187.5,378.999 " /><polygon
     transform="matrix(0.9136179,0,0,0.9136181,66.159501,60.009026)"
     id="polygon65"
     style="fill:#231815"
     points="961.005,264.497 956.005,257.998 956.005,257.998 984.003,246.499 982.001,242.998 985.498,250 " /><polygon
     transform="matrix(0.9136179,0,0,0.9136181,66.159501,60.009026)"
     id="polygon67"
     style="fill:#231815"
     points="995.498,270.996 974.003,283.496 969.501,276.997 969.501,276.997 992.001,263.999 " /><polygon
     transform="matrix(0.9136179,0,0,0.9136181,66.159501,60.009026)"
     id="polygon69"
     style="fill:#231815"
     points="1005,292.5 987.5,302.5 982.998,295.996 982.998,295.996 1001.503,285 " /><polygon
     transform="matrix(0.9136179,0,0,0.9136181,66.159501,60.009026)"
     id="polygon71"
     style="fill:#231815"
     points="1015,313.496 1001.005,321.499 996.503,315 996.503,315 1011.503,305.996 " /><polygon
     transform="matrix(0.9136179,0,0,0.9136181,66.159501,60.009026)"
     id="polygon73"
     style="fill:#231815"
     points="1024.501,334.497 1014.501,340.498 1009.501,333.999 1009.501,333.999 1021.503,327.5 " /><polygon
     transform="matrix(0.9136179,0,0,0.9136181,66.159501,60.009026)"
     id="polygon75"
     style="fill:#231815"
     points="1034.501,355.498 1027.5,359.497 1022.998,352.998 1022.998,352.998 1031.005,348.496 " /><polygon
     transform="matrix(0.9136179,0,0,0.9136181,66.159501,60.009026)"
     id="polygon77"
     style="fill:#231815"
     points="1187.5,378.999 1182.998,370.996 1255,246.499 1255,246.499 1259.501,254.497 " /><polygon
     transform="matrix(0.9136179,0,0,0.9136181,66.159501,60.009026)"
     id="polygon79"
     style="fill:#231815"
     points="1259.501,254.497 1255,246.499 1399.003,246.499 1399.003,246.499 1403.505,254.497 " /><polygon
     transform="matrix(0.9136179,0,0,0.9136181,66.159501,60.009026)"
     id="polygon81"
     style="fill:#231815"
     points="1399.003,246.499 1468.505,125.996 1468.505,125.996 1472.998,125.996 1475,130 1403.505,254.497 " /><polygon
     transform="matrix(0.9136179,0,0,0.9136181,66.159501,60.009026)"
     id="polygon83"
     style="fill:#231815"
     points="1616.503,125.996 1616.503,130 1475,130 1472.998,125.996 1475,121.997 1616.503,121.997 1616.503,121.997 " /><polygon
     transform="matrix(0.9136179,0,0,0.9136181,66.159501,60.009026)"
     id="polygon85"
     style="fill:#231815"
     points="1401.005,1.997 1404.501,0 1475,121.997 1472.998,125.996 1468.505,125.996 1397.5,3.999 1397.5,3.999 " /></g>

<text
   id="text111"
   x="287.55594"
   y="961.35162"
   style="font-size:10.9634161px"><tspan
     x="287.55594"
     y="961.35162"
     style="font-size:91.36180115px;fill:#231815;font-family:ArialMT"
     id="tspan113">HO</tspan></text>

<polygon
   points="232.5,913.496 236.503,915.996 236.503,920.996 158.5,978.496 158.5,978.496 143.5,952.5 "
   style="fill:#231815"
   id="polygon115"
   transform="matrix(0.9136179,0,0,0.9136181,287.55412,23.529028)" />
	
<polygon
   points="1255,246.499 1255,246.499 1259.501,254.497 1187.5,378.999 1182.998,370.996 "
   style="fill:#231815"
   id="polygon77-1"
   transform="matrix(0.91361788,0,0,0.9136181,114.24741,150.64804)" /><text
   xml:space="preserve"
   style="font-size:36.73870468px;font-style:normal;font-weight:normal;line-height:125%;letter-spacing:0px;word-spacing:0px;fill:#000000;fill-opacity:1;stroke:none;font-family:Sans"
   x="695.3241"
   y="576.71033"
   id="text3043"
   sodipodi:linespacing="125%"><tspan
     sodipodi:role="line"
     id="tspan3045"
     x="695.3241"
     y="576.71033"
     style="font-size:51.43418884px">19</tspan></text>
<text
   sodipodi:linespacing="125%"
   id="text3059"
   y="775.09869"
   x="651.23761"
   style="font-size:36.73870468px;font-style:normal;font-weight:normal;line-height:125%;letter-spacing:0px;word-spacing:0px;fill:#000000;fill-opacity:1;stroke:none;font-family:Sans"
   xml:space="preserve"><tspan
     style="font-size:51.43418884px"
     y="775.09869"
     x="651.23761"
     id="tspan3061"
     sodipodi:role="line">10</tspan></text>
<text
   xml:space="preserve"
   style="font-size:36.73870468px;font-style:normal;font-weight:normal;line-height:125%;letter-spacing:0px;word-spacing:0px;fill:#000000;fill-opacity:1;stroke:none;font-family:Sans"
   x="710.01959"
   y="922.05304"
   id="text3063"
   sodipodi:linespacing="125%"><tspan
     sodipodi:role="line"
     id="tspan3065"
     x="710.01959"
     y="922.05304"
     style="font-size:51.43418884px">5</tspan></text>
<text
   sodipodi:linespacing="125%"
   id="text3067"
   y="980.83478"
   x="599.80341"
   style="font-size:36.73870468px;font-style:normal;font-weight:normal;line-height:125%;letter-spacing:0px;word-spacing:0px;fill:#000000;fill-opacity:1;stroke:none;font-family:Sans"
   xml:space="preserve"><tspan
     style="font-size:51.43418884px"
     y="980.83478"
     x="599.80341"
     id="tspan3069"
     sodipodi:role="line">4</tspan></text>
<text
   xml:space="preserve"
   style="font-size:36.73870468px;font-style:normal;font-weight:normal;line-height:125%;letter-spacing:0px;word-spacing:0px;fill:#000000;fill-opacity:1;stroke:none;font-family:Sans"
   x="511.6304"
   y="855.92358"
   id="text3071"
   sodipodi:linespacing="125%"><tspan
     sodipodi:role="line"
     id="tspan3073"
     x="511.6304"
     y="855.92358"
     style="font-size:51.43418884px">3</tspan></text>
<text
   sodipodi:linespacing="125%"
   id="text3075"
   y="708.96924"
   x="460.19617"
   style="font-size:36.73870468px;font-style:normal;font-weight:normal;line-height:125%;letter-spacing:0px;word-spacing:0px;fill:#000000;fill-opacity:1;stroke:none;font-family:Sans"
   xml:space="preserve"><tspan
     style="font-size:51.43418884px"
     y="708.96924"
     x="460.19617"
     id="tspan3077"
     sodipodi:role="line">2</tspan></text>
<text
   xml:space="preserve"
   style="font-size:36.73870468px;font-style:normal;font-weight:normal;line-height:125%;letter-spacing:0px;word-spacing:0px;fill:#000000;fill-opacity:1;stroke:none;font-family:Sans"
   x="599.80341"
   y="642.83978"
   id="text3079"
   sodipodi:linespacing="125%"><tspan
     sodipodi:role="line"
     id="tspan3081"
     x="599.80341"
     y="642.83978"
     style="font-size:51.43418884px">1</tspan></text>
<text
   sodipodi:linespacing="125%"
   id="text3083"
   y="980.83478"
   x="827.58337"
   style="font-size:36.73870468px;font-style:normal;font-weight:normal;line-height:125%;letter-spacing:0px;word-spacing:0px;fill:#000000;fill-opacity:1;stroke:none;font-family:Sans"
   xml:space="preserve"><tspan
     style="font-size:51.43418884px"
     y="980.83478"
     x="827.58337"
     id="tspan3085"
     sodipodi:role="line">6</tspan></text>
<text
   xml:space="preserve"
   style="font-size:36.73870468px;font-style:normal;font-weight:normal;line-height:125%;letter-spacing:0px;word-spacing:0px;fill:#000000;fill-opacity:1;stroke:none;font-family:Sans"
   x="974.53766"
   y="900.00989"
   id="text3087"
   sodipodi:linespacing="125%"><tspan
     sodipodi:role="line"
     id="tspan3089"
     x="974.53766"
     y="900.00989"
     style="font-size:51.43418884px">7</tspan></text>
<text
   sodipodi:linespacing="125%"
   id="text3091"
   y="775.09869"
   x="974.53766"
   style="font-size:36.73870468px;font-style:normal;font-weight:normal;line-height:125%;letter-spacing:0px;word-spacing:0px;fill:#000000;fill-opacity:1;stroke:none;font-family:Sans"
   xml:space="preserve"><tspan
     style="font-size:51.43418884px"
     y="775.09869"
     x="974.53766"
     id="tspan3093"
     sodipodi:role="line">8</tspan></text>
<text
   xml:space="preserve"
   style="font-size:36.73870468px;font-style:normal;font-weight:normal;line-height:125%;letter-spacing:0px;word-spacing:0px;fill:#000000;fill-opacity:1;stroke:none;font-family:Sans"
   x="1084.7534"
   y="657.53522"
   id="text3095"
   sodipodi:linespacing="125%"><tspan
     sodipodi:role="line"
     id="tspan3097"
     x="1084.7534"
     y="657.53522"
     style="font-size:51.43418884px">14</tspan></text>
<text
   sodipodi:linespacing="125%"
   id="text3099"
   y="760.40326"
   x="1172.926"
   style="font-size:36.73870468px;font-style:normal;font-weight:normal;line-height:125%;letter-spacing:0px;word-spacing:0px;fill:#000000;fill-opacity:1;stroke:none;font-family:Sans"
   xml:space="preserve"><tspan
     style="font-size:51.43418884px"
     y="760.40326"
     x="1172.926"
     id="tspan3101"
     sodipodi:role="line">15</tspan></text>
<text
   xml:space="preserve"
   style="font-size:36.73870468px;font-style:normal;font-weight:normal;line-height:125%;letter-spacing:0px;word-spacing:0px;fill:#000000;fill-opacity:1;stroke:none;font-family:Sans"
   x="1283.1417"
   y="620.79663"
   id="text3103"
   sodipodi:linespacing="125%"><tspan
     sodipodi:role="line"
     id="tspan3105"
     x="1283.1417"
     y="620.79663"
     style="font-size:51.43418884px">16</tspan></text>
<text
   sodipodi:linespacing="125%"
   id="text3107"
   y="510.58093"
   x="1224.36"
   style="font-size:36.73870468px;font-style:normal;font-weight:normal;line-height:125%;letter-spacing:0px;word-spacing:0px;fill:#000000;fill-opacity:1;stroke:none;font-family:Sans"
   xml:space="preserve"><tspan
     style="font-size:51.43418884px"
     y="510.58093"
     x="1224.36"
     id="tspan3109"
     sodipodi:role="line">17</tspan></text>
<text
   xml:space="preserve"
   style="font-size:36.73870468px;font-style:normal;font-weight:normal;line-height:125%;letter-spacing:0px;word-spacing:0px;fill:#000000;fill-opacity:1;stroke:none;font-family:Sans"
   x="1261.0986"
   y="363.6261"
   id="text3111"
   sodipodi:linespacing="125%"><tspan
     sodipodi:role="line"
     id="tspan3113"
     x="1261.0986"
     y="363.6261"
     style="font-size:51.43418884px">10</tspan></text>
<text
   sodipodi:linespacing="125%"
   id="text3115"
   y="246.06212"
   x="1150.8828"
   style="font-size:36.73870468px;font-style:normal;font-weight:normal;line-height:125%;letter-spacing:0px;word-spacing:0px;fill:#000000;fill-opacity:1;stroke:none;font-family:Sans"
   xml:space="preserve"><tspan
     style="font-size:51.43418884px"
     y="246.06212"
     x="1150.8828"
     id="tspan3117"
     sodipodi:role="line">21</tspan></text>
<text
   xml:space="preserve"
   style="font-size:36.73870468px;font-style:normal;font-weight:normal;line-height:125%;letter-spacing:0px;word-spacing:0px;fill:#000000;fill-opacity:1;stroke:none;font-family:Sans"
   x="1378.6628"
   y="429.75583"
   id="text3119"
   sodipodi:linespacing="125%"><tspan
     sodipodi:role="line"
     id="tspan3121"
     x="1378.6628"
     y="429.75583"
     style="font-size:51.43418884px">22</tspan></text>
<text
   sodipodi:linespacing="125%"
   id="text3123"
   y="253.40987"
   x="1415.4017"
   style="font-size:36.73870468px;font-style:normal;font-weight:normal;line-height:125%;letter-spacing:0px;word-spacing:0px;fill:#000000;fill-opacity:1;stroke:none;font-family:Sans"
   xml:space="preserve"><tspan
     style="font-size:51.43418884px"
     y="253.40987"
     x="1415.4017"
     id="tspan3125"
     sodipodi:role="line">23</tspan></text>
<text
   xml:space="preserve"
   style="font-size:36.73870468px;font-style:normal;font-weight:normal;line-height:125%;letter-spacing:0px;word-spacing:0px;fill:#000000;fill-opacity:1;stroke:none;font-family:Sans"
   x="1599.0962"
   y="312.19186"
   id="text3127"
   sodipodi:linespacing="125%"><tspan
     sodipodi:role="line"
     id="tspan3129"
     x="1599.0962"
     y="312.19186"
     style="font-size:51.43418884px">24</tspan></text>
<text
   sodipodi:linespacing="125%"
   id="text3131"
   y="135.8459"
   x="1657.8784"
   style="font-size:36.73870468px;font-style:normal;font-weight:normal;line-height:125%;letter-spacing:0px;word-spacing:0px;fill:#000000;fill-opacity:1;stroke:none;font-family:Sans"
   xml:space="preserve"><tspan
     style="font-size:51.43418884px"
     y="135.8459"
     x="1657.8784"
     id="tspan3133"
     sodipodi:role="line">25</tspan></text>
<text
   xml:space="preserve"
   style="font-size:36.73870468px;font-style:normal;font-weight:normal;line-height:125%;letter-spacing:0px;word-spacing:0px;fill:#000000;fill-opacity:1;stroke:none;font-family:Sans"
   x="1540.314"
   y="32.977493"
   id="text3135"
   sodipodi:linespacing="125%"><tspan
     sodipodi:role="line"
     id="tspan3137"
     x="1540.314"
     y="32.977493"
     style="font-size:51.43418884px">26</tspan></text>
<text
   xml:space="preserve"
   style="font-size:36.73870468px;font-style:normal;font-weight:normal;line-height:125%;letter-spacing:0px;word-spacing:0px;fill:#000000;fill-opacity:1;stroke:none;font-family:Sans"
   x="1797.4862"
   y="172.58464"
   id="text3143"
   sodipodi:linespacing="125%"><tspan
     sodipodi:role="line"
     id="tspan3145"
     x="1797.4862"
     y="172.58464"
     style="font-size:51.43418884px">27</tspan></text>
<text
   xml:space="preserve"
   style="font-size:36.73870468px;font-style:normal;font-weight:normal;line-height:125%;letter-spacing:0px;word-spacing:0px;fill:#000000;fill-opacity:1;stroke:none;font-family:Sans"
   x="1033.3193"
   y="378.32159"
   id="text3147"
   sodipodi:linespacing="125%"><tspan
     sodipodi:role="line"
     id="tspan3149"
     x="1033.3193"
     y="378.32159"
     style="font-size:51.43418884px">18</tspan></text>
<text
   sodipodi:linespacing="125%"
   id="text3151"
   y="569.36261"
   x="1003.9285"
   style="font-size:36.73870468px;font-style:normal;font-weight:normal;line-height:125%;letter-spacing:0px;word-spacing:0px;fill:#000000;fill-opacity:1;stroke:none;font-family:Sans"
   xml:space="preserve"><tspan
     style="font-size:51.43418884px"
     y="569.36261"
     x="1003.9285"
     id="tspan3153"
     sodipodi:role="line">13</tspan></text>
<text
   xml:space="preserve"
   style="font-size:36.73870468px;font-style:normal;font-weight:normal;line-height:125%;letter-spacing:0px;word-spacing:0px;fill:#000000;fill-opacity:1;stroke:none;font-family:Sans"
   x="923.10364"
   y="444.45132"
   id="text3155"
   sodipodi:linespacing="125%"><tspan
     sodipodi:role="line"
     id="tspan3157"
     x="923.10364"
     y="444.45132"
     style="font-size:51.43418884px">12</tspan></text>
<text
   sodipodi:linespacing="125%"
   id="text3159"
   y="517.92859"
   x="790.84473"
   style="font-size:36.73870468px;font-style:normal;font-weight:normal;line-height:125%;letter-spacing:0px;word-spacing:0px;fill:#000000;fill-opacity:1;stroke:none;font-family:Sans"
   xml:space="preserve"><tspan
     style="font-size:51.43418884px"
     y="517.92859"
     x="790.84473"
     id="tspan3161"
     sodipodi:role="line">11</tspan></text>
<text
   xml:space="preserve"
   style="font-size:36.73870468px;font-style:normal;font-weight:normal;line-height:125%;letter-spacing:0px;word-spacing:0px;fill:#000000;fill-opacity:1;stroke:none;font-family:Sans"
   x="805.54016"
   y="657.53522"
   id="text3163"
   sodipodi:linespacing="125%"><tspan
     sodipodi:role="line"
     id="tspan3165"
     x="805.54016"
     y="657.53522"
     style="font-size:51.43418884px">9</tspan></text>
<path
   style="fill:none;stroke:#000000;stroke-width:7.34774113;stroke-linecap:butt;stroke-linejoin:miter;stroke-miterlimit:4;stroke-opacity:1;stroke-dasharray:none;marker-start:none;marker-end:url(#Arrow2Mend)"
   d="m 149.4641,912.53524 103.93187,0"
   id="path3173"
   inkscape:connector-curvature="0" /><path
   inkscape:connector-curvature="0"
   id="path4747"
   d="m 149.4641,912.53524 103.93187,0"
   style="fill:none;stroke:#000000;stroke-width:7.34774113;stroke-linecap:butt;stroke-linejoin:miter;stroke-miterlimit:4;stroke-opacity:1;stroke-dasharray:none;marker-start:none;marker-end:url(#Arrow2Mend)" /><path
   style="fill:none;stroke:#000000;stroke-width:7.34774113;stroke-linecap:butt;stroke-linejoin:miter;stroke-miterlimit:4;stroke-opacity:1;stroke-dasharray:none;marker-start:none;marker-end:url(#Arrow2Mend)"
   d="m 259.45325,941.785 -103.93187,0"
   id="path4749"
   inkscape:connector-curvature="0" /><path
   inkscape:connector-curvature="0"
   id="path4751"
   d="m 61.23012,923.68212 75.57424,-71.3468"
   style="fill:none;stroke:#000000;stroke-width:7.34774113;stroke-linecap:butt;stroke-linejoin:miter;stroke-miterlimit:4;stroke-opacity:1;stroke-dasharray:none;marker-start:none;marker-end:none" /><path
   style="fill:none;stroke:#000000;stroke-width:7.34774113;stroke-linecap:butt;stroke-linejoin:miter;stroke-miterlimit:4;stroke-opacity:1;stroke-dasharray:none;marker-start:none;marker-end:none"
   d="m 66.57305,918.63807 75.57423,-71.34681"
   id="path4753"
   inkscape:connector-curvature="0" /><path
   inkscape:connector-curvature="0"
   id="path4939"
   d="m 74.907135,941.08463 82.372305,-77.7646"
   style="fill:none;stroke:#000000;stroke-width:7.67109823;stroke-linecap:butt;stroke-linejoin:miter;stroke-miterlimit:4;stroke-opacity:1;stroke-dasharray:none;marker-start:none;marker-end:none" /><text
   xml:space="preserve"
   style="font-size:36.73870468px;font-style:normal;font-weight:normal;line-height:125%;letter-spacing:0px;word-spacing:0px;fill:#000000;fill-opacity:1;stroke:none;font-family:Sans"
   x="2.2192116"
   y="998.04535"
   id="text4941"
   sodipodi:linespacing="125%"><tspan
     sodipodi:role="line"
     id="tspan4943"
     x="2.2192116"
     y="998.04535"
     style="font-size:91.33242035px">O</tspan></text>
<path
   style="fill:none;stroke:#000000;stroke-width:5.51080561;stroke-linecap:butt;stroke-linejoin:miter;stroke-miterlimit:4;stroke-opacity:1;stroke-dasharray:5.51080568, 5.51080568;stroke-dashoffset:0;marker-end:url(#Arrow2Mend)"
   d="m 806.89355,857.085 c 21.75317,-53.17446 0,-96.6808 -101.51485,-62.84254 -101.51483,33.83829 -70.09359,67.67655 -43.50634,82.17867"
   id="path4957"
   inkscape:connector-curvature="0"
   sodipodi:nodetypes="csc" /><text
   sodipodi:linespacing="125%"
   id="text5141"
   y="1137.6532"
   x="141.82645"
   style="font-size:36.73870468px;font-style:normal;font-weight:normal;line-height:125%;letter-spacing:0px;word-spacing:0px;fill:#000000;fill-opacity:1;stroke:none;font-family:Sans"
   xml:space="preserve"><tspan
     style="font-size:91.33242035px"
     y="1137.6532"
     x="141.82645"
     id="tspan5143"
     sodipodi:role="line" /></text>
<text
   xml:space="preserve"
   style="font-size:36.73870468px;font-style:normal;font-weight:normal;line-height:125%;letter-spacing:0px;word-spacing:0px;fill:#000000;fill-opacity:1;stroke:none;font-family:Sans"
   x="141.82645"
   y="1137.6532"
   id="text5145"
   sodipodi:linespacing="125%"><tspan
     sodipodi:role="line"
     id="tspan5147"
     x="141.82645"
     y="1137.6532"
     style="font-size:91.33242035px" /></text>
<text
   sodipodi:linespacing="125%"
   id="text5149"
   y="1137.6532"
   x="141.82645"
   style="font-size:36.73870468px;font-style:normal;font-weight:normal;line-height:125%;letter-spacing:0px;word-spacing:0px;fill:#000000;fill-opacity:1;stroke:none;font-family:Sans"
   xml:space="preserve"><tspan
     style="font-size:91.33242035px"
     y="1137.6532"
     x="141.82645"
     id="tspan5151"
     sodipodi:role="line" /></text>
<path
   style="fill:none;stroke:#000000;stroke-width:7.34774113;stroke-linecap:butt;stroke-linejoin:miter;stroke-miterlimit:4;stroke-opacity:1;stroke-dasharray:none;marker-start:none;marker-end:url(#Arrow2Mend)"
   d="M 620.84561,442.67613 688.74643,521.361"
   id="path5153"
   inkscape:connector-curvature="0" /><path
   inkscape:connector-curvature="0"
   id="path5155"
   d="m 716.36623,391.24195 67.90082,78.68487"
   style="fill:none;stroke:#000000;stroke-width:7.34774113;stroke-linecap:butt;stroke-linejoin:miter;stroke-miterlimit:4;stroke-opacity:1;stroke-dasharray:none;marker-start:none;marker-end:url(#Arrow2Mend)" /><path
   style="fill:none;stroke:#000000;stroke-width:7.34774113;stroke-linecap:butt;stroke-linejoin:miter;stroke-miterlimit:4;stroke-opacity:1;stroke-dasharray:none;marker-start:none;marker-end:url(#Arrow2Mend)"
   d="m 966.18939,244.28715 67.90081,78.68487"
   id="path5157"
   inkscape:connector-curvature="0" /><path
   inkscape:connector-curvature="0"
   id="path5159"
   d="m 1076.4055,119.37557 67.9008,78.68487"
   style="fill:none;stroke:#000000;stroke-width:7.34774113;stroke-linecap:butt;stroke-linejoin:miter;stroke-miterlimit:4;stroke-opacity:1;stroke-dasharray:none;marker-start:none;marker-end:url(#Arrow2Mend)" /><path
   style="fill:none;stroke:#000000;stroke-width:7.34774113;stroke-linecap:butt;stroke-linejoin:miter;stroke-miterlimit:4;stroke-opacity:1;stroke-dasharray:none;marker-start:none;marker-end:url(#Arrow2Mend)"
   d="m 1291.8538,188.82565 0,103.93181"
   id="path5163"
   inkscape:connector-curvature="0" /><path
   inkscape:connector-curvature="0"
   id="path5165"
   d="m 1471.8306,603.7889 -103.9318,0"
   style="fill:none;stroke:#000000;stroke-width:7.34774113;stroke-linecap:butt;stroke-linejoin:miter;stroke-miterlimit:4;stroke-opacity:1;stroke-dasharray:none;marker-start:none;marker-end:url(#Arrow2Mend)" /><path
   style="fill:none;stroke:#000000;stroke-width:7.34774113;stroke-linecap:butt;stroke-linejoin:miter;stroke-miterlimit:4;stroke-opacity:1;stroke-dasharray:none;marker-start:none;marker-end:url(#Arrow2Mend)"
   d="m 1413.0486,493.57279 -103.9318,0"
   id="path5167"
   inkscape:connector-curvature="0" /></svg>