<?xml version="1.0" encoding="UTF-8" standalone="no"?>
<svg
   xmlns:dc="http://purl.org/dc/elements/1.1/"
   xmlns:cc="http://creativecommons.org/ns#"
   xmlns:rdf="http://www.w3.org/1999/02/22-rdf-syntax-ns#"
   xmlns:svg="http://www.w3.org/2000/svg"
   xmlns="http://www.w3.org/2000/svg"
   xmlns:sodipodi="http://sodipodi.sourceforge.net/DTD/sodipodi-0.dtd"
   xmlns:inkscape="http://www.inkscape.org/namespaces/inkscape"
   height="256.6644"
   width="583.39532"
   id="svg2"
   version="1.1"
   inkscape:version="0.48.2 r9819"
   sodipodi:docname="gre.svg">
  <metadata
     id="metadata309">
    <rdf:RDF>
      <cc:Work
         rdf:about="">
        <dc:format>image/svg+xml</dc:format>
        <dc:type
           rdf:resource="http://purl.org/dc/dcmitype/StillImage" />
      </cc:Work>
    </rdf:RDF>
  </metadata>
  <defs
     id="defs307">
    <marker
       inkscape:stockid="Arrow2Mend"
       orient="auto"
       refY="0"
       refX="0"
       id="Arrow2Mend"
       style="overflow:visible">
      <path
         id="path3969"
         style="font-size:12px;fill-rule:evenodd;stroke-width:0.625;stroke-linejoin:round"
         d="M 8.7185878,4.0337352 -2.2072895,0.01601326 8.7185884,-4.0017078 c -1.7454984,2.3720609 -1.7354408,5.6174519 -6e-7,8.035443 z"
         transform="scale(-0.6,-0.6)"
         inkscape:connector-curvature="0" />
    </marker>
    <marker
       inkscape:stockid="Arrow2Lend"
       orient="auto"
       refY="0"
       refX="0"
       id="Arrow2Lend"
       style="overflow:visible">
      <path
         id="path3963"
         style="font-size:12px;fill-rule:evenodd;stroke-width:0.625;stroke-linejoin:round"
         d="M 8.7185878,4.0337352 -2.2072895,0.01601326 8.7185884,-4.0017078 c -1.7454984,2.3720609 -1.7354408,5.6174519 -6e-7,8.035443 z"
         transform="matrix(-1.1,0,0,-1.1,-1.1,0)"
         inkscape:connector-curvature="0" />
    </marker>
  </defs>
  <sodipodi:namedview
     pagecolor="#ffffff"
     bordercolor="#666666"
     borderopacity="1"
     objecttolerance="10"
     gridtolerance="10"
     guidetolerance="10"
     inkscape:pageopacity="0"
     inkscape:pageshadow="2"
     inkscape:window-width="993"
     inkscape:window-height="655"
     id="namedview305"
     showgrid="false"
     inkscape:zoom="1.0707772"
     inkscape:cx="210.39441"
     inkscape:cy="88.755309"
     inkscape:window-x="0"
     inkscape:window-y="0"
     inkscape:window-maximized="0"
     inkscape:current-layer="svg2"
     fit-margin-top="2"
     fit-margin-left="2"
     fit-margin-right="2"
     fit-margin-bottom="2" />
  <g
     id="g6"
     transform="translate(4.4453125,-35.5)">
    <text
       font-size="10"
       id="Y_title"
       transform="matrix(0,-1,1,0,0,0)"
       x="-137"
       y="12.75"
       style="font-size:10px;text-anchor:middle">
      <tspan
         style="font-size:20px"
         id="tspan3350">bits</tspan>
    </text>
  </g>
  <rect
     height="175"
     id="y_axis"
     style="fill:#000000"
     width="1.25"
     x="52.695312"
     y="2" />
  <rect
     height="1.25"
     id="x_axis"
     style="fill:#000000"
     width="526.25"
     x="52.695312"
     y="177" />
  <rect
     height="1.25"
     width="3.75"
     x="50.195312"
     y="99.222229"
     id="rect11" />
  <text
     font-size="10"
     text-anchor="right"
     x="33.695312"
     y="104.22223"
     id="text13"
     style="font-size:10px">
    <tspan
       style="font-size:20px"
       id="tspan3354">1</tspan>
  </text>
  <rect
     height="1.25"
     width="3.75"
     x="50.195312"
     y="21.444443"
     id="rect15" />
  <text
     font-size="10"
     text-anchor="right"
     x="33.695312"
     y="26.444443"
     id="text17"
     style="font-size:10px">
    <tspan
       style="font-size:20px"
       id="tspan3352">2</tspan>
  </text>
  <rect
     height="3.75"
     width="1.25"
     x="53.320312"
     y="177"
     id="rect19" />
  <polygon
     points="71.625,205.92092 71.625,206.97358 57.66,206.97358 57.66,212.5 52.34,212.5 52.34,206.97358 38.375,206.97358 38.375,205.92092 "
     id="polygon21"
     style="fill:#ff0000"
     transform="translate(16.445312,-35.5)" />
  <ellipse
     cx="56.330002"
     cy="198.55629"
     rx="17.955"
     ry="7.3646369"
     id="ellipse23"
     sodipodi:cx="56.330002"
     sodipodi:cy="198.55629"
     sodipodi:rx="17.955"
     sodipodi:ry="7.3646369"
     style="fill:#c8c800"
     transform="translate(16.445312,-35.5)" />
  <ellipse
     cx="55.997501"
     cy="198.55629"
     rx="12.46875"
     ry="5.5234776"
     id="ellipse25"
     sodipodi:cx="55.997501"
     sodipodi:cy="198.55629"
     sodipodi:rx="12.46875"
     sodipodi:ry="5.5234776"
     style="fill:#ffffff"
     transform="translate(16.445312,-35.5)" />
  <rect
     height="7.3646369"
     width="19.950001"
     x="71.445312"
     y="159.37396"
     id="rect27"
     style="fill:#ffffff" />
  <rect
     height="3.6823184"
     width="6.9159999"
     x="81.420311"
     y="163.05629"
     id="rect29"
     style="fill:#c8c800" />
  <rect
     height="1.8411592"
     width="13.566"
     x="74.770309"
     y="163.05629"
     id="rect31"
     style="fill:#c8c800" />
  <polygon
     points="38.375,191.19165 52.34,166.83925 57.66,166.83925 71.625,191.19165 66.6375,191.19165 62.48125,185.10355 47.51875,185.10355 43.3625,191.19165 38.375,191.19165 "
     id="polygon33"
     style="fill:#00ff00"
     transform="translate(16.445312,-35.5)" />
  <polygon
     points="55,171.70973 49.68,181.45069 59.655,181.45069 "
     id="polygon35"
     style="fill:#ffffff"
     transform="translate(16.445312,-35.5)" />
  <text
     font-size="10"
     text-anchor="bottom"
     x="66.445312"
     y="188.25"
     id="text37"
     style="font-size:10px">1</text>
  <rect
     height="3.75"
     width="1.25"
     x="88.320312"
     y="177"
     id="rect39" />
  <polygon
     points="106.625,207.90157 106.625,208.63732 92.66,208.63732 92.66,212.5 87.34,212.5 87.34,208.63732 73.375,208.63732 73.375,207.90157 "
     id="polygon41"
     style="fill:#ff0000"
     transform="translate(16.445312,-35.5)" />
  <polygon
     points="73.375,207.90157 87.34,195.02597 92.66,195.02597 106.625,207.90157 101.6375,207.90157 97.48125,204.68267 82.51875,204.68267 78.3625,207.90157 73.375,207.90157 "
     id="polygon43"
     style="fill:#00ff00"
     transform="translate(16.445312,-35.5)" />
  <polygon
     points="90,197.60109 84.68,202.75133 94.655,202.75133 "
     id="polygon45"
     style="fill:#ffffff"
     transform="translate(16.445312,-35.5)" />
  <ellipse
     cx="91.330002"
     cy="160.99759"
     rx="17.955"
     ry="34.028378"
     id="ellipse47"
     sodipodi:cx="91.330002"
     sodipodi:cy="160.99759"
     sodipodi:rx="17.955"
     sodipodi:ry="34.028378"
     style="fill:#c8c800"
     transform="translate(16.445312,-35.5)" />
  <ellipse
     cx="90.997498"
     cy="160.99759"
     rx="12.46875"
     ry="25.521284"
     id="ellipse49"
     sodipodi:cx="90.997498"
     sodipodi:cy="160.99759"
     sodipodi:rx="12.46875"
     sodipodi:ry="25.521284"
     style="fill:#ffffff"
     transform="translate(16.445312,-35.5)" />
  <rect
     height="34.028378"
     width="19.950001"
     x="106.44531"
     y="108.4834"
     id="rect51"
     style="fill:#ffffff" />
  <rect
     height="17.014189"
     width="6.9159999"
     x="116.42031"
     y="125.49759"
     id="rect53"
     style="fill:#c8c800" />
  <rect
     height="8.5070944"
     width="13.566"
     x="109.77031"
     y="125.49759"
     id="rect55"
     style="fill:#c8c800" />
  <text
     font-size="10"
     text-anchor="bottom"
     x="101.44531"
     y="188.25"
     id="text57"
     style="font-size:10px">2</text>
  <rect
     height="3.75"
     width="1.25"
     x="123.32031"
     y="177"
     id="rect59" />
  <polygon
     points="141.625,211.03629 141.625,211.27049 127.66,211.27049 127.66,212.5 122.34,212.5 122.34,211.27049 108.375,211.27049 108.375,211.03629 "
     id="polygon61"
     style="fill:#ff0000"
     transform="translate(16.445312,-35.5)" />
  <ellipse
     cx="126.33"
     cy="209.78549"
     rx="17.955"
     ry="1.250803"
     id="ellipse63"
     sodipodi:cx="126.33"
     sodipodi:cy="209.78549"
     sodipodi:rx="17.955"
     sodipodi:ry="1.250803"
     style="fill:#0000ff"
     transform="translate(16.445312,-35.5)" />
  <ellipse
     cx="125.9975"
     cy="209.78549"
     rx="12.46875"
     ry="0.93810225"
     id="ellipse65"
     sodipodi:cx="125.9975"
     sodipodi:cy="209.78549"
     sodipodi:rx="12.46875"
     sodipodi:ry="0.93810225"
     style="fill:#ffffff"
     transform="translate(16.445312,-35.5)" />
  <rect
     height="1.250803"
     width="19.950001"
     x="141.44531"
     y="173.6601"
     id="rect67"
     style="fill:#ffffff" />
  <ellipse
     cx="126.33"
     cy="207.08429"
     rx="17.955"
     ry="1.4503992"
     id="ellipse69"
     sodipodi:cx="126.33"
     sodipodi:cy="207.08429"
     sodipodi:rx="17.955"
     sodipodi:ry="1.4503992"
     style="fill:#c8c800"
     transform="translate(16.445312,-35.5)" />
  <ellipse
     cx="125.9975"
     cy="207.08429"
     rx="12.46875"
     ry="1.0877994"
     id="ellipse71"
     sodipodi:cx="125.9975"
     sodipodi:cy="207.08429"
     sodipodi:rx="12.46875"
     sodipodi:ry="1.0877994"
     style="fill:#ffffff"
     transform="translate(16.445312,-35.5)" />
  <rect
     height="1.4503992"
     width="19.950001"
     x="141.44531"
     y="170.85909"
     id="rect73"
     style="fill:#ffffff" />
  <rect
     height="0.72519958"
     width="6.9159999"
     x="151.42032"
     y="171.58429"
     id="rect75"
     style="fill:#c8c800" />
  <rect
     height="0.36259979"
     width="13.566"
     x="144.77031"
     y="171.58429"
     id="rect77"
     style="fill:#c8c800" />
  <polygon
     points="108.375,205.63389 122.34,200.12503 127.66,200.12503 141.625,205.63389 136.6375,205.63389 132.48125,204.25668 117.51875,204.25668 113.3625,205.63389 108.375,205.63389 "
     id="polygon79"
     style="fill:#00ff00"
     transform="translate(16.445312,-35.5)" />
  <polygon
     points="125,201.22681 119.68,203.43035 129.655,203.43035 "
     id="polygon81"
     style="fill:#ffffff"
     transform="translate(16.445312,-35.5)" />
  <text
     font-size="10"
     text-anchor="bottom"
     x="136.44531"
     y="188.25"
     id="text83"
     style="font-size:10px">3</text>
  <rect
     height="3.75"
     width="1.25"
     x="158.32031"
     y="177"
     id="rect85" />
  <polygon
     points="176.625,206.47757 176.625,207.44116 162.66,207.44116 162.66,212.5 157.34,212.5 157.34,207.44116 143.375,207.44116 143.375,206.47757 "
     id="polygon87"
     style="fill:#ff0000"
     transform="translate(16.445312,-35.5)" />
  <ellipse
     cx="161.33"
     cy="202.60602"
     rx="17.955"
     ry="3.8715603"
     id="ellipse89"
     sodipodi:cx="161.33"
     sodipodi:cy="202.60602"
     sodipodi:rx="17.955"
     sodipodi:ry="3.8715603"
     style="fill:#c8c800"
     transform="translate(16.445312,-35.5)" />
  <ellipse
     cx="160.9975"
     cy="202.60602"
     rx="12.46875"
     ry="2.9036703"
     id="ellipse91"
     sodipodi:cx="160.9975"
     sodipodi:cy="202.60602"
     sodipodi:rx="12.46875"
     sodipodi:ry="2.9036703"
     style="fill:#ffffff"
     transform="translate(16.445312,-35.5)" />
  <rect
     height="3.8715603"
     width="19.950001"
     x="176.44531"
     y="165.17023"
     id="rect93"
     style="fill:#ffffff" />
  <rect
     height="1.9357802"
     width="6.9159999"
     x="186.42032"
     y="167.10602"
     id="rect95"
     style="fill:#c8c800" />
  <rect
     height="0.96789008"
     width="13.566"
     x="179.77031"
     y="167.10602"
     id="rect97"
     style="fill:#c8c800" />
  <polygon
     points="143.375,198.73445 157.34,112.48469 162.66,112.48469 176.625,198.73445 171.6375,198.73445 167.48125,177.17201 152.51875,177.17201 148.3625,198.73445 143.375,198.73445 "
     id="polygon99"
     style="fill:#00ff00"
     transform="translate(16.445312,-35.5)" />
  <polygon
     points="160,129.73465 154.68,164.23455 164.655,164.23455 "
     id="polygon101"
     style="fill:#ffffff"
     transform="translate(16.445312,-35.5)" />
  <text
     font-size="10"
     text-anchor="bottom"
     x="171.44531"
     y="188.25"
     id="text103"
     style="font-size:10px">4</text>
  <rect
     height="3.75"
     width="1.25"
     x="193.32031"
     y="177"
     id="rect105" />
  <ellipse
     cx="196.33"
     cy="134.72223"
     rx="17.955"
     ry="77.777779"
     id="ellipse107"
     sodipodi:cx="196.33"
     sodipodi:cy="134.72223"
     sodipodi:rx="17.955"
     sodipodi:ry="77.777779"
     style="fill:#0000ff"
     transform="translate(16.445312,-35.5)" />
  <ellipse
     cx="195.9975"
     cy="134.72223"
     rx="12.46875"
     ry="58.333332"
     id="ellipse109"
     sodipodi:cx="195.9975"
     sodipodi:cy="134.72223"
     sodipodi:rx="12.46875"
     sodipodi:ry="58.333332"
     style="fill:#ffffff"
     transform="translate(16.445312,-35.5)" />
  <rect
     height="77.777779"
     width="19.950001"
     x="211.44531"
     y="60.333336"
     id="rect111"
     style="fill:#ffffff" />
  <text
     font-size="10"
     text-anchor="bottom"
     x="206.44531"
     y="188.25"
     id="text113"
     style="font-size:10px">5</text>
  <rect
     height="3.75"
     width="1.25"
     x="228.32031"
     y="177"
     id="rect115" />
  <ellipse
     cx="231.33"
     cy="211.06859"
     rx="17.955"
     ry="1.4314129"
     id="ellipse117"
     sodipodi:cx="231.33"
     sodipodi:cy="211.06859"
     sodipodi:rx="17.955"
     sodipodi:ry="1.4314129"
     style="fill:#c8c800"
     transform="translate(16.445312,-35.5)" />
  <ellipse
     cx="230.9975"
     cy="211.06859"
     rx="12.46875"
     ry="1.0735596"
     id="ellipse119"
     sodipodi:cx="230.9975"
     sodipodi:cy="211.06859"
     sodipodi:rx="12.46875"
     sodipodi:ry="1.0735596"
     style="fill:#ffffff"
     transform="translate(16.445312,-35.5)" />
  <rect
     height="1.4314129"
     width="19.950001"
     x="246.44531"
     y="174.85287"
     id="rect121"
     style="fill:#ffffff" />
  <rect
     height="0.71570647"
     width="6.9159999"
     x="256.42032"
     y="175.56859"
     id="rect123"
     style="fill:#c8c800" />
  <rect
     height="0.35785323"
     width="13.566"
     x="249.77031"
     y="175.56859"
     id="rect125"
     style="fill:#c8c800" />
  <polygon
     points="246.625,196.141 246.625,198.30038 232.66,198.30038 232.66,209.63717 227.34,209.63717 227.34,198.30038 213.375,198.30038 213.375,196.141 "
     id="polygon127"
     style="fill:#ff0000"
     transform="translate(16.445312,-35.5)" />
  <polygon
     points="213.375,196.141 227.34,117.41329 232.66,117.41329 246.625,196.141 241.6375,196.141 237.48125,176.45907 222.51875,176.45907 218.3625,196.141 213.375,196.141 "
     id="polygon129"
     style="fill:#00ff00"
     transform="translate(16.445312,-35.5)" />
  <polygon
     points="230,133.15883 224.68,164.64991 234.655,164.64991 "
     id="polygon131"
     style="fill:#ffffff"
     transform="translate(16.445312,-35.5)" />
  <text
     font-size="10"
     text-anchor="bottom"
     x="241.44531"
     y="188.25"
     id="text133"
     style="font-size:10px">6</text>
  <rect
     height="3.75"
     width="1.25"
     x="263.32031"
     y="177"
     id="rect135" />
  <ellipse
     cx="266.32999"
     cy="207.6828"
     rx="17.955"
     ry="4.8171926"
     id="ellipse137"
     sodipodi:cx="266.32999"
     sodipodi:cy="207.6828"
     sodipodi:rx="17.955"
     sodipodi:ry="4.8171926"
     style="fill:#0000ff"
     transform="translate(16.445312,-35.5)" />
  <ellipse
     cx="265.9975"
     cy="207.6828"
     rx="12.46875"
     ry="3.6128945"
     id="ellipse139"
     sodipodi:cx="265.9975"
     sodipodi:cy="207.6828"
     sodipodi:rx="12.46875"
     sodipodi:ry="3.6128945"
     style="fill:#ffffff"
     transform="translate(16.445312,-35.5)" />
  <rect
     height="4.8171926"
     width="19.950001"
     x="281.44531"
     y="169.77422"
     id="rect141"
     style="fill:#ffffff" />
  <polygon
     points="248.375,202.86561 262.34,192.09777 267.66,192.09777 281.625,202.86561 276.6375,202.86561 272.48125,200.17365 257.51875,200.17365 253.3625,202.86561 248.375,202.86561 "
     id="polygon143"
     style="fill:#00ff00"
     transform="translate(16.445312,-35.5)" />
  <polygon
     points="265,194.25134 259.68,198.55848 269.655,198.55848 "
     id="polygon145"
     style="fill:#ffffff"
     transform="translate(16.445312,-35.5)" />
  <ellipse
     cx="266.32999"
     cy="185.82834"
     rx="17.955"
     ry="6.2694345"
     id="ellipse147"
     sodipodi:cx="266.32999"
     sodipodi:cy="185.82834"
     sodipodi:rx="17.955"
     sodipodi:ry="6.2694345"
     style="fill:#c8c800"
     transform="translate(16.445312,-35.5)" />
  <ellipse
     cx="265.9975"
     cy="185.82834"
     rx="12.46875"
     ry="4.702076"
     id="ellipse149"
     sodipodi:cx="265.9975"
     sodipodi:cy="185.82834"
     sodipodi:rx="12.46875"
     sodipodi:ry="4.702076"
     style="fill:#ffffff"
     transform="translate(16.445312,-35.5)" />
  <rect
     height="6.2694345"
     width="19.950001"
     x="281.44531"
     y="147.19362"
     id="rect151"
     style="fill:#ffffff" />
  <rect
     height="3.1347172"
     width="6.9159999"
     x="291.42032"
     y="150.32834"
     id="rect153"
     style="fill:#c8c800" />
  <rect
     height="1.5673586"
     width="13.566"
     x="284.77032"
     y="150.32834"
     id="rect155"
     style="fill:#c8c800" />
  <text
     font-size="10"
     text-anchor="bottom"
     x="276.44531"
     y="188.25"
     id="text157"
     style="font-size:10px">7</text>
  <rect
     height="3.75"
     width="1.25"
     x="298.32031"
     y="177"
     id="rect159" />
  <ellipse
     cx="301.32999"
     cy="211.23047"
     rx="17.955"
     ry="1.2695366"
     id="ellipse161"
     sodipodi:cx="301.32999"
     sodipodi:cy="211.23047"
     sodipodi:rx="17.955"
     sodipodi:ry="1.2695366"
     style="fill:#0000ff"
     transform="translate(16.445312,-35.5)" />
  <ellipse
     cx="300.9975"
     cy="211.23047"
     rx="12.46875"
     ry="0.95215243"
     id="ellipse163"
     sodipodi:cx="300.9975"
     sodipodi:cy="211.23047"
     sodipodi:rx="12.46875"
     sodipodi:ry="0.95215243"
     style="fill:#ffffff"
     transform="translate(16.445312,-35.5)" />
  <rect
     height="1.2695366"
     width="19.950001"
     x="316.44531"
     y="175.09569"
     id="rect165"
     style="fill:#ffffff" />
  <polygon
     points="316.625,207.13576 316.625,207.58779 302.66,207.58779 302.66,209.96093 297.34,209.96093 297.34,207.58779 283.375,207.58779 283.375,207.13576 "
     id="polygon167"
     style="fill:#ff0000"
     transform="translate(16.445312,-35.5)" />
  <ellipse
     cx="301.32999"
     cy="205.68742"
     rx="17.955"
     ry="1.4483446"
     id="ellipse169"
     sodipodi:cx="301.32999"
     sodipodi:cy="205.68742"
     sodipodi:rx="17.955"
     sodipodi:ry="1.4483446"
     style="fill:#c8c800"
     transform="translate(16.445312,-35.5)" />
  <ellipse
     cx="300.9975"
     cy="205.68742"
     rx="12.46875"
     ry="1.0862584"
     id="ellipse171"
     sodipodi:cx="300.9975"
     sodipodi:cy="205.68742"
     sodipodi:rx="12.46875"
     sodipodi:ry="1.0862584"
     style="fill:#ffffff"
     transform="translate(16.445312,-35.5)" />
  <rect
     height="1.4483446"
     width="19.950001"
     x="316.44531"
     y="169.46324"
     id="rect173"
     style="fill:#ffffff" />
  <rect
     height="0.72417229"
     width="6.9159999"
     x="326.42032"
     y="170.18742"
     id="rect175"
     style="fill:#c8c800" />
  <rect
     height="0.36208615"
     width="13.566"
     x="319.77032"
     y="170.18742"
     id="rect177"
     style="fill:#c8c800" />
  <polygon
     points="283.375,204.23907 297.34,195.87086 302.66,195.87086 316.625,204.23907 311.6375,204.23907 307.48125,202.14702 292.51875,202.14702 288.3625,204.23907 283.375,204.23907 "
     id="polygon179"
     style="fill:#00ff00"
     transform="translate(16.445312,-35.5)" />
  <polygon
     points="300,197.5445 294.68,200.89179 304.655,200.89179 "
     id="polygon181"
     style="fill:#ffffff"
     transform="translate(16.445312,-35.5)" />
  <text
     font-size="10"
     text-anchor="bottom"
     x="311.44531"
     y="188.25"
     id="text183"
     style="font-size:10px">8</text>
  <rect
     height="3.75"
     width="1.25"
     x="333.32031"
     y="177"
     id="rect185" />
  <ellipse
     cx="336.32999"
     cy="207.67535"
     rx="17.955"
     ry="4.8246398"
     id="ellipse187"
     sodipodi:cx="336.32999"
     sodipodi:cy="207.67535"
     sodipodi:rx="17.955"
     sodipodi:ry="4.8246398"
     style="fill:#0000ff"
     transform="translate(16.445312,-35.5)" />
  <ellipse
     cx="335.9975"
     cy="207.67535"
     rx="12.46875"
     ry="3.6184797"
     id="ellipse189"
     sodipodi:cx="335.9975"
     sodipodi:cy="207.67535"
     sodipodi:rx="12.46875"
     sodipodi:ry="3.6184797"
     style="fill:#ffffff"
     transform="translate(16.445312,-35.5)" />
  <rect
     height="4.8246398"
     width="19.950001"
     x="351.44531"
     y="169.76305"
     id="rect191"
     style="fill:#ffffff" />
  <ellipse
     cx="336.32999"
     cy="197.9359"
     rx="17.955"
     ry="4.9148202"
     id="ellipse193"
     sodipodi:cx="336.32999"
     sodipodi:cy="197.9359"
     sodipodi:rx="17.955"
     sodipodi:ry="4.9148202"
     style="fill:#c8c800"
     transform="translate(16.445312,-35.5)" />
  <ellipse
     cx="335.9975"
     cy="197.9359"
     rx="12.46875"
     ry="3.686115"
     id="ellipse195"
     sodipodi:cx="335.9975"
     sodipodi:cy="197.9359"
     sodipodi:rx="12.46875"
     sodipodi:ry="3.686115"
     style="fill:#ffffff"
     transform="translate(16.445312,-35.5)" />
  <rect
     height="4.9148202"
     width="19.950001"
     x="351.44531"
     y="159.97849"
     id="rect197"
     style="fill:#ffffff" />
  <rect
     height="2.4574101"
     width="6.9159999"
     x="361.42032"
     y="162.4359"
     id="rect199"
     style="fill:#c8c800" />
  <rect
     height="1.228705"
     width="13.566"
     x="354.77032"
     y="162.4359"
     id="rect201"
     style="fill:#c8c800" />
  <polygon
     points="318.375,193.02108 332.34,170.56622 337.66,170.56622 351.625,193.02108 346.6375,193.02108 342.48125,187.40736 327.51875,187.40736 323.3625,193.02108 318.375,193.02108 "
     id="polygon203"
     style="fill:#00ff00"
     transform="translate(16.445312,-35.5)" />
  <polygon
     points="335,175.05719 329.68,184.03913 339.655,184.03913 "
     id="polygon205"
     style="fill:#ffffff"
     transform="translate(16.445312,-35.5)" />
  <text
     font-size="10"
     text-anchor="bottom"
     x="346.44531"
     y="188.25"
     id="text207"
     style="font-size:10px">9</text>
  <rect
     height="3.75"
     width="1.25"
     x="368.32031"
     y="177"
     id="rect209" />
  <ellipse
     cx="371.32999"
     cy="210.93036"
     rx="17.955"
     ry="1.5696337"
     id="ellipse211"
     sodipodi:cx="371.32999"
     sodipodi:cy="210.93036"
     sodipodi:rx="17.955"
     sodipodi:ry="1.5696337"
     style="fill:#c8c800"
     transform="translate(16.445312,-35.5)" />
  <ellipse
     cx="370.9975"
     cy="210.93036"
     rx="12.46875"
     ry="1.1772254"
     id="ellipse213"
     sodipodi:cx="370.9975"
     sodipodi:cy="210.93036"
     sodipodi:rx="12.46875"
     sodipodi:ry="1.1772254"
     style="fill:#ffffff"
     transform="translate(16.445312,-35.5)" />
  <rect
     height="1.5696337"
     width="19.950001"
     x="386.44531"
     y="174.64555"
     id="rect215"
     style="fill:#ffffff" />
  <rect
     height="0.78481686"
     width="6.9159999"
     x="396.42032"
     y="175.43036"
     id="rect217"
     style="fill:#c8c800" />
  <rect
     height="0.39240843"
     width="13.566"
     x="389.77032"
     y="175.43036"
     id="rect219"
     style="fill:#c8c800" />
  <polygon
     points="353.375,209.36073 367.34,191.51647 372.66,191.51647 386.625,209.36073 381.6375,209.36073 377.48125,204.89967 362.51875,204.89967 358.3625,209.36073 353.375,209.36073 "
     id="polygon221"
     style="fill:#00ff00"
     transform="translate(16.445312,-35.5)" />
  <polygon
     points="370,195.08533 364.68,202.22303 374.655,202.22303 "
     id="polygon223"
     style="fill:#ffffff"
     transform="translate(16.445312,-35.5)" />
  <polygon
     points="386.625,135.67056 386.625,144.6059 372.66,144.6059 372.66,191.51647 367.34,191.51647 367.34,144.6059 353.375,144.6059 353.375,135.67056 "
     id="polygon225"
     style="fill:#ff0000"
     transform="translate(16.445312,-35.5)" />
  <text
     font-size="10"
     text-anchor="bottom"
     x="381.44531"
     y="188.25"
     id="text227"
     style="font-size:10px">10</text>
  <rect
     height="3.75"
     width="1.25"
     x="403.32031"
     y="177"
     id="rect229" />
  <ellipse
     cx="406.32999"
     cy="134.72223"
     rx="17.955"
     ry="77.777779"
     id="ellipse231"
     sodipodi:cx="406.32999"
     sodipodi:cy="134.72223"
     sodipodi:rx="17.955"
     sodipodi:ry="77.777779"
     style="fill:#c8c800"
     transform="translate(16.445312,-35.5)" />
  <ellipse
     cx="405.9975"
     cy="134.72223"
     rx="12.46875"
     ry="58.333332"
     id="ellipse233"
     sodipodi:cx="405.9975"
     sodipodi:cy="134.72223"
     sodipodi:rx="12.46875"
     sodipodi:ry="58.333332"
     style="fill:#ffffff"
     transform="translate(16.445312,-35.5)" />
  <rect
     height="77.777779"
     width="19.950001"
     x="421.44531"
     y="60.333336"
     id="rect235"
     style="fill:#ffffff" />
  <rect
     height="38.888889"
     width="6.9159999"
     x="431.42032"
     y="99.222229"
     id="rect237"
     style="fill:#c8c800" />
  <rect
     height="19.444445"
     width="13.566"
     x="424.77032"
     y="99.222229"
     id="rect239"
     style="fill:#c8c800" />
  <text
     font-size="10"
     text-anchor="bottom"
     x="416.44531"
     y="188.25"
     id="text241"
     style="font-size:10px">11</text>
  <rect
     height="3.75"
     width="1.25"
     x="438.32031"
     y="177"
     id="rect243" />
  <ellipse
     cx="441.32999"
     cy="211.56009"
     rx="17.955"
     ry="0.93991184"
     id="ellipse245"
     sodipodi:cx="441.32999"
     sodipodi:cy="211.56009"
     sodipodi:rx="17.955"
     sodipodi:ry="0.93991184"
     style="fill:#0000ff"
     transform="translate(16.445312,-35.5)" />
  <ellipse
     cx="440.9975"
     cy="211.56009"
     rx="12.46875"
     ry="0.70493388"
     id="ellipse247"
     sodipodi:cx="440.9975"
     sodipodi:cy="211.56009"
     sodipodi:rx="12.46875"
     sodipodi:ry="0.70493388"
     style="fill:#ffffff"
     transform="translate(16.445312,-35.5)" />
  <rect
     height="0.93991184"
     width="19.950001"
     x="456.44531"
     y="175.59013"
     id="rect249"
     style="fill:#ffffff" />
  <polygon
     points="423.375,210.62018 437.34,199.57621 442.66,199.57621 456.625,210.62018 451.6375,210.62018 447.48125,207.85919 432.51875,207.85919 428.3625,210.62018 423.375,210.62018 "
     id="polygon251"
     style="fill:#00ff00"
     transform="translate(16.445312,-35.5)" />
  <polygon
     points="440,201.78501 434.68,206.20259 444.655,206.20259 "
     id="polygon253"
     style="fill:#ffffff"
     transform="translate(16.445312,-35.5)" />
  <polygon
     points="456.625,103.23525 456.625,118.6498 442.66,118.6498 442.66,199.57621 437.34,199.57621 437.34,118.6498 423.375,118.6498 423.375,103.23525 "
     id="polygon255"
     style="fill:#ff0000"
     transform="translate(16.445312,-35.5)" />
  <text
     font-size="10"
     text-anchor="bottom"
     x="451.44531"
     y="188.25"
     id="text257"
     style="font-size:10px">12</text>
  <rect
     height="3.75"
     width="1.25"
     x="473.32031"
     y="177"
     id="rect259" />
  <polygon
     points="458.375,212.5 472.34,203.74399 477.66,203.74399 491.625,212.5 486.6375,212.5 482.48125,210.311 467.51875,210.311 463.3625,212.5 458.375,212.5 "
     id="polygon261"
     style="fill:#00ff00"
     transform="translate(16.445312,-35.5)" />
  <polygon
     points="475,205.49519 469.68,208.99759 479.655,208.99759 "
     id="polygon263"
     style="fill:#ffffff"
     transform="translate(16.445312,-35.5)" />
  <ellipse
     cx="476.32999"
     cy="197.83368"
     rx="17.955"
     ry="5.9103084"
     id="ellipse265"
     sodipodi:cx="476.32999"
     sodipodi:cy="197.83368"
     sodipodi:rx="17.955"
     sodipodi:ry="5.9103084"
     style="fill:#0000ff"
     transform="translate(16.445312,-35.5)" />
  <ellipse
     cx="475.9975"
     cy="197.83368"
     rx="12.46875"
     ry="4.4327312"
     id="ellipse267"
     sodipodi:cx="475.9975"
     sodipodi:cy="197.83368"
     sodipodi:rx="12.46875"
     sodipodi:ry="4.4327312"
     style="fill:#ffffff"
     transform="translate(16.445312,-35.5)" />
  <rect
     height="5.9103084"
     width="19.950001"
     x="491.44531"
     y="159.37852"
     id="rect269"
     style="fill:#ffffff" />
  <polygon
     points="491.625,178.57045 491.625,180.70692 477.66,180.70692 477.66,191.92337 472.34,191.92337 472.34,180.70692 458.375,180.70692 458.375,178.57045 "
     id="polygon271"
     style="fill:#ff0000"
     transform="translate(16.445312,-35.5)" />
  <text
     font-size="10"
     text-anchor="bottom"
     x="486.44531"
     y="188.25"
     id="text273"
     style="font-size:10px">13</text>
  <rect
     height="3.75"
     width="1.25"
     x="508.32031"
     y="177"
     id="rect275" />
  <polygon
     points="526.625,198.36334 526.625,200.6252 512.66,200.6252 512.66,212.5 507.34,212.5 507.34,200.6252 493.375,200.6252 493.375,198.36334 "
     id="polygon277"
     style="fill:#ff0000"
     transform="translate(16.445312,-35.5)" />
  <ellipse
     cx="511.32999"
     cy="148.76314"
     rx="17.955"
     ry="49.600193"
     id="ellipse279"
     sodipodi:cx="511.32999"
     sodipodi:cy="148.76314"
     sodipodi:rx="17.955"
     sodipodi:ry="49.600193"
     style="fill:#0000ff"
     transform="translate(16.445312,-35.5)" />
  <ellipse
     cx="510.9975"
     cy="148.76314"
     rx="12.46875"
     ry="37.200146"
     id="ellipse281"
     sodipodi:cx="510.9975"
     sodipodi:cy="148.76314"
     sodipodi:rx="12.46875"
     sodipodi:ry="37.200146"
     style="fill:#ffffff"
     transform="translate(16.445312,-35.5)" />
  <rect
     height="49.600193"
     width="19.950001"
     x="526.44531"
     y="88.463043"
     id="rect283"
     style="fill:#ffffff" />
  <text
     font-size="10"
     text-anchor="bottom"
     x="521.44531"
     y="188.25"
     id="text285"
     style="font-size:10px">14</text>
  <rect
     height="3.75"
     width="1.25"
     x="543.32031"
     y="177"
     id="rect287" />
  <polygon
     points="528.375,212.5 542.34,206.30819 547.66,206.30819 561.625,212.5 556.6375,212.5 552.48125,210.95205 537.51875,210.95205 533.3625,212.5 528.375,212.5 "
     id="polygon289"
     style="fill:#00ff00"
     transform="translate(16.445312,-35.5)" />
  <polygon
     points="545,207.54655 539.68,210.02328 549.655,210.02328 "
     id="polygon291"
     style="fill:#ffffff"
     transform="translate(16.445312,-35.5)" />
  <ellipse
     cx="546.33002"
     cy="198.56842"
     rx="17.955"
     ry="7.7397642"
     id="ellipse293"
     sodipodi:cx="546.33002"
     sodipodi:cy="198.56842"
     sodipodi:rx="17.955"
     sodipodi:ry="7.7397642"
     style="fill:#0000ff"
     transform="translate(16.445312,-35.5)" />
  <ellipse
     cx="545.9975"
     cy="198.56842"
     rx="12.46875"
     ry="5.8048234"
     id="ellipse295"
     sodipodi:cx="545.9975"
     sodipodi:cy="198.56842"
     sodipodi:rx="12.46875"
     sodipodi:ry="5.8048234"
     style="fill:#ffffff"
     transform="translate(16.445312,-35.5)" />
  <rect
     height="7.7397642"
     width="19.950001"
     x="561.44531"
     y="159.19855"
     id="rect297"
     style="fill:#ffffff" />
  <polygon
     points="561.625,164.51346 561.625,168.72389 547.66,168.72389 547.66,190.82866 542.34,190.82866 542.34,168.72389 528.375,168.72389 528.375,164.51346 "
     id="polygon299"
     style="fill:#ff0000"
     transform="translate(16.445312,-35.5)" />
  <text
     font-size="10"
     text-anchor="bottom"
     x="556.44531"
     y="188.25"
     id="text301"
     style="font-size:10px">15</text>
  <rect
     height="3.75"
     width="1.25"
     x="578.32031"
     y="177"
     id="rect303" />
  <!-- 
 	Generated using the Perl SVG Module V2.59
 	by Ronan Oger
 	Info: http://www.roitsystems.com/
  -->
  <text
     xml:space="preserve"
     style="font-size:10px;font-style:normal;font-weight:normal;line-height:125%;letter-spacing:0px;word-spacing:0px;fill:#000000;fill-opacity:1;stroke:none;font-family:Sans"
     x="57.913448"
     y="254.09799"
     id="text3286"
     sodipodi:linespacing="125%"><tspan
       sodipodi:role="line"
       id="tspan3288"
       x="57.913448"
       y="254.09799"
       style="font-size:40px">A</tspan></text>
  <text
     sodipodi:linespacing="125%"
     id="text3290"
     y="254.09799"
     x="91.632362"
     style="font-size:10px;font-style:normal;font-weight:normal;line-height:125%;letter-spacing:0px;word-spacing:0px;fill:#000000;fill-opacity:1;stroke:none;font-family:Sans"
     xml:space="preserve"><tspan
       style="font-size:40px"
       y="254.09799"
       x="91.632362"
       id="tspan3292"
       sodipodi:role="line">G</tspan></text>
  <text
     xml:space="preserve"
     style="font-size:10px;font-style:normal;font-weight:normal;line-height:125%;letter-spacing:0px;word-spacing:0px;fill:#000000;fill-opacity:1;stroke:none;font-family:Sans"
     x="127.96846"
     y="254.09799"
     id="text3294"
     sodipodi:linespacing="125%"><tspan
       sodipodi:role="line"
       id="tspan3296"
       x="127.96846"
       y="254.09799"
       style="font-size:40px">A</tspan></text>
  <text
     sodipodi:linespacing="125%"
     id="text3298"
     y="254.09799"
     x="162.99597"
     style="font-size:10px;font-style:normal;font-weight:normal;line-height:125%;letter-spacing:0px;word-spacing:0px;fill:#000000;fill-opacity:1;stroke:none;font-family:Sans"
     xml:space="preserve"><tspan
       style="font-size:40px"
       y="254.09799"
       x="162.99597"
       id="tspan3300"
       sodipodi:role="line">A</tspan></text>
  <text
     xml:space="preserve"
     style="font-size:10px;font-style:normal;font-weight:normal;line-height:125%;letter-spacing:0px;word-spacing:0px;fill:#000000;fill-opacity:1;stroke:none;font-family:Sans"
     x="197.69145"
     y="254.09799"
     id="text3302"
     sodipodi:linespacing="125%"><tspan
       sodipodi:role="line"
       id="tspan3304"
       x="197.69145"
       y="254.09799"
       style="font-size:40px">C</tspan></text>
  <text
     sodipodi:linespacing="125%"
     id="text3306"
     y="254.09799"
     x="233.05099"
     style="font-size:10px;font-style:normal;font-weight:normal;line-height:125%;letter-spacing:0px;word-spacing:0px;fill:#000000;fill-opacity:1;stroke:none;font-family:Sans"
     xml:space="preserve"><tspan
       style="font-size:40px"
       y="254.09799"
       x="233.05099"
       id="tspan3308"
       sodipodi:role="line">A</tspan></text>
  <text
     xml:space="preserve"
     style="font-size:10px;font-style:normal;font-weight:normal;line-height:125%;letter-spacing:0px;word-spacing:0px;fill:#000000;fill-opacity:1;stroke:none;font-family:Sans"
     x="268.9574"
     y="254.09799"
     id="text3310"
     sodipodi:linespacing="125%"><tspan
       sodipodi:role="line"
       id="tspan3312"
       x="268.9574"
       y="254.09799"
       style="font-size:40px">n</tspan></text>
  <text
     sodipodi:linespacing="125%"
     id="text3314"
     y="254.09799"
     x="303.98489"
     style="font-size:10px;font-style:normal;font-weight:normal;line-height:125%;letter-spacing:0px;word-spacing:0px;fill:#000000;fill-opacity:1;stroke:none;font-family:Sans"
     xml:space="preserve"><tspan
       style="font-size:40px"
       y="254.09799"
       x="303.98489"
       id="tspan3316"
       sodipodi:role="line">n</tspan></text>
  <text
     xml:space="preserve"
     style="font-size:10px;font-style:normal;font-weight:normal;line-height:125%;letter-spacing:0px;word-spacing:0px;fill:#000000;fill-opacity:1;stroke:none;font-family:Sans"
     x="339.01242"
     y="254.09799"
     id="text3318"
     sodipodi:linespacing="125%"><tspan
       sodipodi:role="line"
       id="tspan3320"
       x="339.01242"
       y="254.09799"
       style="font-size:40px">n</tspan></text>
  <text
     sodipodi:linespacing="125%"
     id="text3322"
     y="254.09799"
     x="374.61609"
     style="font-size:10px;font-style:normal;font-weight:normal;line-height:125%;letter-spacing:0px;word-spacing:0px;fill:#000000;fill-opacity:1;stroke:none;font-family:Sans"
     xml:space="preserve"><tspan
       style="font-size:40px"
       y="254.09799"
       x="374.61609"
       id="tspan3324"
       sodipodi:role="line">T</tspan></text>
  <text
     xml:space="preserve"
     style="font-size:10px;font-style:normal;font-weight:normal;line-height:125%;letter-spacing:0px;word-spacing:0px;fill:#000000;fill-opacity:1;stroke:none;font-family:Sans"
     x="406.87994"
     y="254.09799"
     id="text3326"
     sodipodi:linespacing="125%"><tspan
       sodipodi:role="line"
       id="tspan3328"
       x="406.87994"
       y="254.09799"
       style="font-size:40px">G</tspan></text>
  <text
     sodipodi:linespacing="125%"
     id="text3330"
     y="254.09799"
     x="444.67111"
     style="font-size:10px;font-style:normal;font-weight:normal;line-height:125%;letter-spacing:0px;word-spacing:0px;fill:#000000;fill-opacity:1;stroke:none;font-family:Sans"
     xml:space="preserve"><tspan
       style="font-size:40px"
       y="254.09799"
       x="444.67111"
       id="tspan3332"
       sodipodi:role="line">T</tspan></text>
  <text
     xml:space="preserve"
     style="font-size:10px;font-style:normal;font-weight:normal;line-height:125%;letter-spacing:0px;word-spacing:0px;fill:#000000;fill-opacity:1;stroke:none;font-family:Sans"
     x="479.69861"
     y="254.09799"
     id="text3334"
     sodipodi:linespacing="125%"><tspan
       sodipodi:role="line"
       id="tspan3336"
       x="479.69861"
       y="254.09799"
       style="font-size:40px">T</tspan></text>
  <text
     sodipodi:linespacing="125%"
     id="text3338"
     y="254.09799"
     x="512.93903"
     style="font-size:10px;font-style:normal;font-weight:normal;line-height:125%;letter-spacing:0px;word-spacing:0px;fill:#000000;fill-opacity:1;stroke:none;font-family:Sans"
     xml:space="preserve"><tspan
       style="font-size:40px"
       y="254.09799"
       x="512.93903"
       id="tspan3340"
       sodipodi:role="line">C</tspan></text>
  <text
     xml:space="preserve"
     style="font-size:10px;font-style:normal;font-weight:normal;line-height:125%;letter-spacing:0px;word-spacing:0px;fill:#000000;fill-opacity:1;stroke:none;font-family:Sans"
     x="549.7536"
     y="254.09799"
     id="text3342"
     sodipodi:linespacing="125%"><tspan
       sodipodi:role="line"
       id="tspan3344"
       x="549.7536"
       y="254.09799"
       style="font-size:40px">T</tspan></text>
  <text
     style="font-size:10px"
     id="text3356"
     y="182.22223"
     x="33.695312"
     text-anchor="right"
     font-size="10">
    <tspan
       id="tspan3358"
       style="font-size:20px">0</tspan>
  </text>
  <path
     style="fill:none;stroke:#000000;stroke-width:3;stroke-linecap:butt;stroke-linejoin:miter;stroke-miterlimit:4;stroke-opacity:1;stroke-dasharray:none;marker-end:url(#Arrow2Mend)"
     d="m 62.571373,205.44907 193.317527,0"
     id="path3167"
     inkscape:connector-curvature="0" />
  <path
     inkscape:connector-curvature="0"
     id="path4937"
     d="m 572.36202,205.44907 -193.31753,0"
     style="fill:none;stroke:#000000;stroke-width:3;stroke-linecap:butt;stroke-linejoin:miter;stroke-miterlimit:4;stroke-opacity:1;stroke-dasharray:none;marker-end:url(#Arrow2Mend)" />
</svg>
